<svg viewBox="0 0 55 55" preserveAspectRatio="xMidYMid meet" width="55" height="55" xmlns="http://www.w3.org/2000/svg">
<path d="m42.4 16.3c0 2.6-2.1 4.7-4.7 4.7 -2.6 0-4.7-2.1-4.7-4.7 0-2.6 2.1-4.7 4.7-4.7 2.6 0 4.7 2.1 4.7 4.7ZM22.5 16.1c0 2.6-2.1 4.7-4.7 4.7 -2.6 0-4.7-2.1-4.7-4.7 0-2.6 2.1-4.7 4.7-4.7 2.6 0 4.7 2.1 4.7 4.7ZM42.4 33.6C41.5 40.1 33.2 44.5 27 44.4 20.7 44.3 14.5 39.7 12.9 33.6L12.9 31 26.9 31 42.4 31ZM17 3.1C8 7.1 1 17.3 1 26.4c0 11.1 7.9 22 18.1 25 6.6 2 10.2 2 16.5 0.1C50.2 47.2 57.4 30.2 50.7 15.7 45.1 3.5 29.2-2.5 17 3.1Z" /></svg>
